#!OML:ASF H:\SpeedWalk\Project 1\Capture day 2\Session 1\male.ASF
:FULLY-SPECIFIED
:DEGREES
14
root -7.892697 17.521938 -22.669663 3.831558 2.836895 6.594943
lowerback 6.329828 -0.682740 -7.297203 
upperback -0.918889 -1.440797 1.062663 
thorax -4.315180 -0.521240 5.361275 
lowerneck -13.535850 0.937786 1.988854 
upperneck 17.213009 1.697541 -4.314556 
head 7.584404 0.532904 -1.568572 
rclavicle 0.000000 0.000000 
rhumerus -34.674397 -28.350073 -73.083635 
rradius 24.654716 
rwrist 4.858071 
rhand -12.583855 -10.535216 
rfingers 0.000000 
rthumb 13.494302 -40.078051 
lclavicle 0.000000 0.000000 
lhumerus -39.725157 8.247265 85.846380 
lradius 33.678020 
lwrist -15.255984 
lhand -6.981156 15.185195 
lfingers 0.000000 
lthumb 18.888919 44.288114 
rfemur -34.281231 -1.044311 14.236481 
rtibia 34.284196 
rfoot -6.443252 -7.701667 
rtoes 0.585685 
lfemur 8.336289 -4.946370 -28.660070 
ltibia 29.603990 
lfoot -11.271942 -6.945827 
ltoes -26.675942 
15
root -7.905708 17.530905 -22.576594 3.722873 2.791574 6.523794
lowerback 6.358371 -0.657305 -7.215509 
upperback -0.897614 -1.400737 1.089581 
thorax -4.315693 -0.503635 5.340064 
lowerneck -13.539712 0.942755 1.983853 
upperneck 17.266557 1.710057 -4.327973 
head 7.603218 0.536779 -1.571234 
rclavicle 0.000000 0.000000 
rhumerus -34.809499 -28.631888 -72.845405 
rradius 24.401774 
rwrist 5.203613 
rhand -12.573209 -10.536230 
rfingers 0.000000 
rthumb 13.504588 -40.078370 
lclavicle 0.000000 0.000000 
lhumerus -39.852684 8.262944 85.839170 
lradius 33.607638 
lwrist -15.335144 
lhand -6.879618 15.216183 
lfingers 0.000000 
lthumb 18.986582 44.309506 
rfemur -33.921241 -1.062604 14.406151 
rtibia 34.461578 
rfoot -6.674460 -7.492257 
rtoes 0.935905 
lfemur 7.694475 -4.839424 -28.429107 
ltibia 31.129796 
lfoot -10.081433 -7.607426 
ltoes -27.125646 
16
root -7.918887 17.539825 -22.483833 3.612613 2.748034 6.452995
lowerback 6.387879 -0.631427 -7.136300 
upperback -0.874868 -1.360293 1.116507 
thorax -4.315187 -0.485860 5.320220 
lowerneck -13.545931 0.947069 1.978382 
upperneck 17.320868 1.721738 -4.341134 
head 7.622672 0.540212 -1.573828 
rclavicle 0.000000 0.000000 
rhumerus -34.941449 -28.910087 -72.609991 
rradius 24.150841 
rwrist 5.549062 
rhand -12.558837 -10.531669 
rfingers 0.000000 
rthumb 13.518460 -40.072865 
lclavicle 0.000000 0.000000 
lhumerus -39.977936 8.269779 85.835845 
lradius 33.542392 
lwrist -15.411169 
lhand -6.776761 15.249081 
lfingers 0.000000 
lthumb 19.085526 44.332649 
rfemur -33.555964 -1.074934 14.573532 
rtibia 34.633768 
rfoot -6.907480 -7.290823 
rtoes 1.299694 
lfemur 7.039440 -4.728282 -28.194003 
ltibia 32.663347 
lfoot -8.840986 -8.280068 
ltoes -27.527732 
17
root -7.933051 17.548687 -22.392261 3.495278 2.728293 6.356647
lowerback 6.422818 -0.608527 -7.041307 
upperback -0.849065 -1.322497 1.150582 
thorax -4.314174 -0.469783 5.299228 
lowerneck -13.556774 0.947302 1.971953 
upperneck 17.380201 1.727957 -4.353072 
head 7.644412 0.540987 -1.576475 
rclavicle 0.000000 0.000000 
rhumerus -35.064463 -29.151931 -72.395667 
rradius 23.918904 
rwrist 5.877358 
rhand -12.536822 -10.520661 
rfingers 0.000000 
rthumb 13.539650 -40.060426 
lclavicle 0.000000 0.000000 
lhumerus -40.096271 8.226991 85.851586 
lradius 33.504470 
lwrist -15.470777 
lhand -6.657286 15.277592 
lfingers 0.000000 
lthumb 19.200394 44.349766 
rfemur -33.155935 -1.058785 14.760832 
rtibia 34.763387 
rfoot -7.129213 -7.133415 
rtoes 1.790737 
lfemur 6.321089 -4.623409 -27.913190 
ltibia 34.229558 
lfoot -7.356734 -8.973338 
ltoes -27.679807 
18
root -7.947355 17.557585 -22.300899 3.377976 2.712585 6.251155
lowerback 6.457885 -0.586425 -6.938470 
upperback -0.823130 -1.285009 1.187300 
thorax -4.313103 -0.454018 5.276586 
lowerneck -13.568908 0.947081 1.965000 
upperneck 17.440027 1.733625 -4.364723 
head 7.666524 0.541468 -1.579004 
rclavicle 0.000000 0.000000 
rhumerus -35.185031 -29.384505 -72.186547 
rradius 23.691352 
rwrist 6.200498 
rhand -12.512396 -10.507667 
rfingers 0.000000 
rthumb 13.563179 -40.045848 
lclavicle 0.000000 0.000000 
lhumerus -40.212990 8.173792 85.872027 
lradius 33.472661 
lwrist -15.525794 
lhand -6.534128 15.307345 
lfingers 0.000000 
lthumb 19.318803 44.367733 
rfemur -32.750017 -1.037625 14.957275 
rtibia 34.882245 
rfoot -7.346746 -6.983701 
rtoes 2.302028 
lfemur 5.589365 -4.521854 -27.620735 
ltibia 35.802403 
lfoot -5.837891 -9.666045 
ltoes -27.746596 
19
root -7.962272 17.566644 -22.210456 3.260818 2.714531 6.105639
lowerback 6.493511 -0.567817 -6.801297 
upperback -0.796616 -1.248867 1.235586 
thorax -4.311774 -0.439616 5.246719 
lowerneck -13.586696 0.944869 1.955749 
upperneck 17.502012 1.736881 -4.375116 
head 7.690258 0.540668 -1.581013 
rclavicle 0.000000 0.000000 
rhumerus -35.294890 -29.576498 -72.000209 
rradius 23.482999 
rwrist 6.501070 
rhand -12.477423 -10.485981 
rfingers 0.000000 
rthumb 13.596944 -40.021911 
lclavicle 0.000000 0.000000 
lhumerus -40.322629 8.075023 85.913039 
lradius 33.467610 
lwrist -15.560711 
lhand -6.394847 15.342537 
lfingers 0.000000 
lthumb 19.452709 44.389419 
rfemur -32.318322 -0.994527 15.193739 
rtibia 34.954002 
rfoot -7.545898 -6.867665 
rtoes 2.901949 
lfemur 4.799110 -4.434817 -27.277323 
ltibia 37.404282 
lfoot -4.167638 -10.356285 
ltoes -27.440078 
20
root -7.977402 17.575871 -22.120342 3.144079 2.723283 5.934680
lowerback 6.529427 -0.550041 -6.639387 
upperback -0.770582 -1.211542 1.290141 
thorax -4.311482 -0.425081 5.209271 
lowerneck -13.606145 0.940938 1.946692 
upperneck 17.564912 1.737706 -4.385223 
head 7.714510 0.538721 -1.583227 
rclavicle 0.000000 0.000000 
rhumerus -35.400269 -29.749757 -71.825367 
rradius 23.283755 
rwrist 6.789324 
rhand -12.437185 -10.458618 
rfingers 0.000000 
rthumb 13.635753 -39.991975 
lclavicle 0.000000 0.000000 
lhumerus -40.427648 7.955085 85.962853 
lradius 33.472364 
lwrist -15.589801 
lhand -6.247289 15.377659 
lfingers 0.000000 
lthumb 19.594574 44.410141 
rfemur -31.874962 -0.943533 15.458331 
rtibia 35.000984 
rfoot -7.731463 -6.767930 
rtoes 3.529457 
lfemur 3.982853 -4.355988 -26.905870 
ltibia 39.021739 
lfoot -2.465920 -11.047134 
ltoes -26.891435 
21
root -7.992903 17.585391 -22.030801 3.028069 2.743900 5.719369
lowerback 6.565846 -0.533716 -6.434356 
upperback -0.745382 -1.172156 1.355623 
thorax -4.312995 -0.410312 5.158609 
lowerneck -13.628488 0.934008 1.937975 
upperneck 17.629409 1.734294 -4.394831 
head 7.739665 0.534773 -1.585797 
rclavicle 0.000000 0.000000 
rhumerus -35.497840 -29.890362 -71.670564 
rradius 23.100390 
rwrist 7.056105 
rhand -12.387767 -10.421362 
rfingers 0.000000 
rthumb 13.683355 -39.951582 
lclavicle 0.000000 0.000000 
lhumerus -40.524614 7.798245 86.028010 
lradius 33.494212 
lwrist -15.608732 
lhand -6.085304 15.412659 
lfingers 0.000000 
lthumb 19.750313 44.429182 
rfemur -31.411267 -0.878774 15.771955 
rtibia 35.004781 
rfoot -7.893343 -6.696610 
rtoes 4.205056 
lfemur 3.121270 -4.291464 -26.485540 
ltibia 40.666352 
lfoot -0.709355 -11.739043 
ltoes -25.920736 
22
root -8.008429 17.595159 -21.941989 2.916178 2.769610 5.464243
lowerback 6.600498 -0.518090 -6.189706 
upperback -0.722792 -1.129859 1.431246 
thorax -4.316877 -0.394747 5.095752 
lowerneck -13.650302 0.925271 1.931412 
upperneck 17.694519 1.728274 -4.405948 
head 7.764890 0.529582 -1.589517 
rclavicle 0.000000 0.000000 
rhumerus -35.587962 -30.001139 -71.532793 
rradius 22.930482 
rwrist 7.302218 
rhand -12.339101 -10.385017 
rfingers 0.000000 
rthumb 13.730234 -39.912098 
lclavicle 0.000000 0.000000 
lhumerus -40.615518 7.610852 86.107926 
lradius 33.532178 
lwrist -15.615671 
lhand -5.913035 15.444906 
lfingers 0.000000 
lthumb 19.915922 44.444284 
rfemur -30.934493 -0.806672 16.130562 
rtibia 34.968801 
rfoot -8.035312 -6.647700 
rtoes 4.897100 
lfemur 2.220396 -4.232973 -26.024804 
ltibia 42.334862 
lfoot 1.026571 -12.436305 
ltoes -24.494356 
23
root -8.023976 17.605131 -21.853778 2.807692 2.799531 5.176196
lowerback 6.633687 -0.503041 -5.912299 
upperback -0.702360 -1.085155 1.515255 
thorax -4.322717 -0.378523 5.022812 
lowerneck -13.671678 0.915038 1.926630 
upperneck 17.760137 1.720098 -4.418311 
head 7.790173 0.523363 -1.594190 
rclavicle 0.000000 0.000000 
rhumerus -35.671927 -30.087252 -71.409105 
rradius 22.771699 
rwrist 7.531242 
rhand -12.291059 -10.349426 
rfingers 0.000000 
rthumb 13.776513 -39.873367 
lclavicle 0.000000 0.000000 
lhumerus -40.701411 7.398197 86.200044 
lradius 33.583471 
lwrist -15.612696 
lhand -5.732264 15.474878 
lfingers 0.000000 
lthumb 20.089690 44.456130 
rfemur -30.446904 -0.728498 16.526363 
rtibia 34.899933 
rfoot -8.160818 -6.617321 
rtoes 5.602744 
lfemur 1.287035 -4.179470 -25.530659 
ltibia 44.023132 
lfoot 2.745434 -13.137992 
ltoes -22.691214 
24
root -8.039271 17.615398 -21.767048 2.704753 2.827130 4.840347
lowerback 6.662610 -0.485160 -5.585869 
upperback -0.683389 -1.031730 1.610944 
thorax -4.328911 -0.358919 4.933210 
lowerneck -13.692234 0.902833 1.923300 
upperneck 17.822844 1.709018 -4.431650 
head 7.814286 0.515802 -1.599737 
rclavicle 0.000000 0.000000 
rhumerus -35.741836 -30.128832 -71.313047 
rradius 22.634248 
rwrist 7.721666 
rhand -12.246161 -10.321448 
rfingers 0.000000 
rthumb 13.819773 -39.842418 
lclavicle 0.000000 0.000000 
lhumerus -40.772117 7.153523 86.309280 
lradius 33.651631 
lwrist -15.602091 
lhand -5.542288 15.493191 
lfingers 0.000000 
lthumb 20.272276 44.455159 
rfemur -29.948853 -0.645904 16.977214 
rtibia 34.782126 
rfoot -8.264153 -6.613463 
rtoes 6.255749 
lfemur 0.311842 -4.121903 -24.991859 
ltibia 45.736952 
lfoot 4.306828 -13.831835 
ltoes -20.294084 
25
root -8.054474 17.625772 -21.680857 2.603840 2.853880 4.487026
lowerback 6.689973 -0.466244 -5.241522 
upperback -0.664952 -0.975117 1.710902 
thorax -4.335235 -0.338080 4.837517 
lowerneck -13.712489 0.889908 1.920500 
upperneck 17.884488 1.696876 -4.445345 
head 7.837972 0.507752 -1.605605 
rclavicle 0.000000 0.000000 
rhumerus -35.806608 -30.154137 -71.227087 
rradius 22.504594 
rwrist 7.897983 
rhand -12.202412 -10.296253 
rfingers 0.000000 
rthumb 13.861930 -39.814313 
lclavicle 0.000000 0.000000 
lhumerus -40.837274 6.897146 86.424772 
lradius 33.725954 
lwrist -15.588698 
lhand -5.348949 15.507243 
lfingers 0.000000 
lthumb 20.458085 44.449506 
rfemur -29.446979 -0.561694 17.448185 
rtibia 34.646434 
rfoot -8.359384 -6.619298 
rtoes 6.889517 
lfemur -0.678641 -4.062851 -24.436740 
ltibia 47.460111 
lfoot 5.810672 -14.522811 
ltoes -17.679870 
